<mxfile host="app.diagrams.net" modified="2023-01-25T13:00:55.732Z" agent="5.0 (Windows NT 10.0; Win64; x64) AppleWebKit/537.36 (KHTML, like Gecko) Chrome/109.0.0.0 Safari/537.36" etag="HeGQrEOCtPAuJJ5-wIbe" version="20.8.11" type="github">
  <diagram id="kgpKYQtTHZ0yAKxKKP6v" name="Page-1">
    <mxGraphModel dx="1218" dy="643" grid="1" gridSize="10" guides="1" tooltips="1" connect="1" arrows="1" fold="1" page="1" pageScale="1" pageWidth="850" pageHeight="1100" math="0" shadow="0">
      <root>
        <mxCell id="0" />
        <mxCell id="1" parent="0" />
        <mxCell id="vEkB1fkWT50H9W3AZ1wL-51" value="" style="endArrow=none;dashed=1;html=1;rounded=0;" edge="1" parent="1">
          <mxGeometry width="50" height="50" relative="1" as="geometry">
            <mxPoint x="115" y="495" as="sourcePoint" />
            <mxPoint x="735" y="495" as="targetPoint" />
          </mxGeometry>
        </mxCell>
        <mxCell id="vEkB1fkWT50H9W3AZ1wL-4" style="edgeStyle=orthogonalEdgeStyle;rounded=0;orthogonalLoop=1;jettySize=auto;html=1;exitX=1;exitY=0.5;exitDx=0;exitDy=0;entryX=0;entryY=0.5;entryDx=0;entryDy=0;" edge="1" parent="1" source="vEkB1fkWT50H9W3AZ1wL-1" target="vEkB1fkWT50H9W3AZ1wL-2">
          <mxGeometry relative="1" as="geometry" />
        </mxCell>
        <mxCell id="vEkB1fkWT50H9W3AZ1wL-1" value="index.js" style="whiteSpace=wrap;html=1;aspect=fixed;" vertex="1" parent="1">
          <mxGeometry x="280" y="160" width="80" height="80" as="geometry" />
        </mxCell>
        <mxCell id="vEkB1fkWT50H9W3AZ1wL-2" value="quiz.js" style="whiteSpace=wrap;html=1;aspect=fixed;" vertex="1" parent="1">
          <mxGeometry x="430" y="160" width="80" height="80" as="geometry" />
        </mxCell>
        <mxCell id="vEkB1fkWT50H9W3AZ1wL-5" value="index.php" style="whiteSpace=wrap;html=1;aspect=fixed;" vertex="1" parent="1">
          <mxGeometry x="280" y="270" width="80" height="80" as="geometry" />
        </mxCell>
        <mxCell id="vEkB1fkWT50H9W3AZ1wL-6" value="quiz.php" style="whiteSpace=wrap;html=1;aspect=fixed;" vertex="1" parent="1">
          <mxGeometry x="430" y="270" width="80" height="80" as="geometry" />
        </mxCell>
        <mxCell id="vEkB1fkWT50H9W3AZ1wL-9" value="" style="shape=link;html=1;rounded=0;" edge="1" parent="1">
          <mxGeometry width="100" relative="1" as="geometry">
            <mxPoint x="320" y="400" as="sourcePoint" />
            <mxPoint x="480" y="400" as="targetPoint" />
          </mxGeometry>
        </mxCell>
        <mxCell id="vEkB1fkWT50H9W3AZ1wL-10" value="" style="shape=link;html=1;rounded=0;exitX=0.5;exitY=1;exitDx=0;exitDy=0;" edge="1" parent="1" source="vEkB1fkWT50H9W3AZ1wL-5">
          <mxGeometry width="100" relative="1" as="geometry">
            <mxPoint x="380" y="350" as="sourcePoint" />
            <mxPoint x="320" y="400" as="targetPoint" />
          </mxGeometry>
        </mxCell>
        <mxCell id="vEkB1fkWT50H9W3AZ1wL-11" value="" style="shape=link;html=1;rounded=0;" edge="1" parent="1">
          <mxGeometry width="100" relative="1" as="geometry">
            <mxPoint x="480" y="400" as="sourcePoint" />
            <mxPoint x="480" y="350" as="targetPoint" />
          </mxGeometry>
        </mxCell>
        <mxCell id="vEkB1fkWT50H9W3AZ1wL-13" value="" style="endArrow=classic;html=1;rounded=0;" edge="1" parent="1">
          <mxGeometry width="50" height="50" relative="1" as="geometry">
            <mxPoint x="400" y="400" as="sourcePoint" />
            <mxPoint x="400" y="480" as="targetPoint" />
          </mxGeometry>
        </mxCell>
        <mxCell id="vEkB1fkWT50H9W3AZ1wL-14" value="" style="endArrow=classic;html=1;rounded=0;exitX=0.5;exitY=1;exitDx=0;exitDy=0;" edge="1" parent="1" source="vEkB1fkWT50H9W3AZ1wL-2">
          <mxGeometry width="50" height="50" relative="1" as="geometry">
            <mxPoint x="400" y="370" as="sourcePoint" />
            <mxPoint x="470" y="270" as="targetPoint" />
          </mxGeometry>
        </mxCell>
        <mxCell id="vEkB1fkWT50H9W3AZ1wL-15" value="" style="endArrow=classic;html=1;rounded=0;exitX=0.5;exitY=1;exitDx=0;exitDy=0;entryX=0.5;entryY=0;entryDx=0;entryDy=0;" edge="1" parent="1" source="vEkB1fkWT50H9W3AZ1wL-1" target="vEkB1fkWT50H9W3AZ1wL-5">
          <mxGeometry width="50" height="50" relative="1" as="geometry">
            <mxPoint x="400" y="370" as="sourcePoint" />
            <mxPoint x="450" y="320" as="targetPoint" />
          </mxGeometry>
        </mxCell>
        <mxCell id="vEkB1fkWT50H9W3AZ1wL-17" value="クイズの回答" style="text;html=1;align=center;verticalAlign=middle;resizable=0;points=[];autosize=1;strokeColor=none;fillColor=none;" vertex="1" parent="1">
          <mxGeometry x="460" y="240" width="100" height="30" as="geometry" />
        </mxCell>
        <mxCell id="vEkB1fkWT50H9W3AZ1wL-18" value="" style="endArrow=classic;html=1;rounded=0;entryX=1;entryY=0.5;entryDx=0;entryDy=0;" edge="1" parent="1" target="vEkB1fkWT50H9W3AZ1wL-2">
          <mxGeometry width="50" height="50" relative="1" as="geometry">
            <mxPoint x="600" y="200" as="sourcePoint" />
            <mxPoint x="450" y="320" as="targetPoint" />
          </mxGeometry>
        </mxCell>
        <mxCell id="vEkB1fkWT50H9W3AZ1wL-19" value="ユーザ" style="ellipse;whiteSpace=wrap;html=1;aspect=fixed;" vertex="1" parent="1">
          <mxGeometry x="600" y="160" width="80" height="80" as="geometry" />
        </mxCell>
        <mxCell id="vEkB1fkWT50H9W3AZ1wL-20" value="クイズを回答" style="text;html=1;align=center;verticalAlign=middle;resizable=0;points=[];autosize=1;strokeColor=none;fillColor=none;" vertex="1" parent="1">
          <mxGeometry x="510" y="170" width="100" height="30" as="geometry" />
        </mxCell>
        <mxCell id="vEkB1fkWT50H9W3AZ1wL-21" value="ユーザ" style="ellipse;whiteSpace=wrap;html=1;aspect=fixed;" vertex="1" parent="1">
          <mxGeometry x="120" y="160" width="80" height="80" as="geometry" />
        </mxCell>
        <mxCell id="vEkB1fkWT50H9W3AZ1wL-22" value="" style="endArrow=classic;html=1;rounded=0;exitX=1;exitY=0.5;exitDx=0;exitDy=0;" edge="1" parent="1" source="vEkB1fkWT50H9W3AZ1wL-21">
          <mxGeometry width="50" height="50" relative="1" as="geometry">
            <mxPoint x="610" y="210" as="sourcePoint" />
            <mxPoint x="280" y="200" as="targetPoint" />
          </mxGeometry>
        </mxCell>
        <mxCell id="vEkB1fkWT50H9W3AZ1wL-23" value="名前を入力" style="text;html=1;align=center;verticalAlign=middle;resizable=0;points=[];autosize=1;strokeColor=none;fillColor=none;" vertex="1" parent="1">
          <mxGeometry x="200" y="175" width="80" height="30" as="geometry" />
        </mxCell>
        <mxCell id="vEkB1fkWT50H9W3AZ1wL-24" value="名前" style="text;html=1;align=center;verticalAlign=middle;resizable=0;points=[];autosize=1;strokeColor=none;fillColor=none;" vertex="1" parent="1">
          <mxGeometry x="270" y="240" width="50" height="30" as="geometry" />
        </mxCell>
        <mxCell id="vEkB1fkWT50H9W3AZ1wL-32" value="" style="endArrow=classic;html=1;rounded=0;" edge="1" parent="1">
          <mxGeometry width="50" height="50" relative="1" as="geometry">
            <mxPoint x="380" y="480" as="sourcePoint" />
            <mxPoint x="380" y="400" as="targetPoint" />
          </mxGeometry>
        </mxCell>
        <mxCell id="vEkB1fkWT50H9W3AZ1wL-33" value="DB" style="shape=cylinder3;whiteSpace=wrap;html=1;boundedLbl=1;backgroundOutline=1;size=15;" vertex="1" parent="1">
          <mxGeometry x="360" y="480" width="60" height="80" as="geometry" />
        </mxCell>
        <mxCell id="vEkB1fkWT50H9W3AZ1wL-34" value="名前入力後&lt;br&gt;遷移" style="text;html=1;align=center;verticalAlign=middle;resizable=0;points=[];autosize=1;strokeColor=none;fillColor=none;" vertex="1" parent="1">
          <mxGeometry x="355" y="165" width="80" height="40" as="geometry" />
        </mxCell>
        <mxCell id="vEkB1fkWT50H9W3AZ1wL-35" value="解説一覧" style="text;html=1;align=center;verticalAlign=middle;resizable=0;points=[];autosize=1;strokeColor=none;fillColor=none;" vertex="1" parent="1">
          <mxGeometry x="310" y="425" width="70" height="30" as="geometry" />
        </mxCell>
        <mxCell id="vEkB1fkWT50H9W3AZ1wL-41" value="" style="shape=flexArrow;endArrow=classic;html=1;rounded=0;" edge="1" parent="1">
          <mxGeometry width="50" height="50" relative="1" as="geometry">
            <mxPoint x="70" y="160" as="sourcePoint" />
            <mxPoint x="70" y="560" as="targetPoint" />
          </mxGeometry>
        </mxCell>
        <mxCell id="vEkB1fkWT50H9W3AZ1wL-44" value="処理方法" style="shape=hexagon;perimeter=hexagonPerimeter2;whiteSpace=wrap;html=1;fixedSize=1;" vertex="1" parent="1">
          <mxGeometry x="730" y="80" width="90" height="55" as="geometry" />
        </mxCell>
        <mxCell id="vEkB1fkWT50H9W3AZ1wL-45" value="fetch , json" style="shape=hexagon;perimeter=hexagonPerimeter2;whiteSpace=wrap;html=1;fixedSize=1;" vertex="1" parent="1">
          <mxGeometry x="730" y="220" width="90" height="55" as="geometry" />
        </mxCell>
        <mxCell id="vEkB1fkWT50H9W3AZ1wL-46" value="PDO-prepare , MySQL" style="shape=hexagon;perimeter=hexagonPerimeter2;whiteSpace=wrap;html=1;fixedSize=1;" vertex="1" parent="1">
          <mxGeometry x="720" y="400" width="100" height="60" as="geometry" />
        </mxCell>
        <mxCell id="vEkB1fkWT50H9W3AZ1wL-48" value="phpAdmin&lt;br style=&quot;border-color: var(--border-color);&quot;&gt;&lt;span style=&quot;text-decoration-line: underline;&quot;&gt;データ作成&lt;/span&gt;" style="shape=hexagon;perimeter=hexagonPerimeter2;whiteSpace=wrap;html=1;fixedSize=1;" vertex="1" parent="1">
          <mxGeometry x="720" y="492.5" width="90" height="55" as="geometry" />
        </mxCell>
        <mxCell id="vEkB1fkWT50H9W3AZ1wL-49" value="" style="endArrow=none;dashed=1;html=1;rounded=0;" edge="1" parent="1">
          <mxGeometry width="50" height="50" relative="1" as="geometry">
            <mxPoint x="110" y="250" as="sourcePoint" />
            <mxPoint x="730" y="250" as="targetPoint" />
          </mxGeometry>
        </mxCell>
        <mxCell id="vEkB1fkWT50H9W3AZ1wL-52" value="" style="endArrow=none;dashed=1;html=1;rounded=0;" edge="1" parent="1">
          <mxGeometry width="50" height="50" relative="1" as="geometry">
            <mxPoint x="115" y="450" as="sourcePoint" />
            <mxPoint x="735" y="450" as="targetPoint" />
          </mxGeometry>
        </mxCell>
      </root>
    </mxGraphModel>
  </diagram>
</mxfile>
